<?xml version="1.0" encoding="utf-8"?>
<svg version="1.1" xmlns:xlink="http://www.w3.org/1999/xlink" width="25px" height="25px" xmlns="http://www.w3.org/2000/svg">
  <g transform="matrix(1 0 0 1 0 4 )">
    <path d="M 20.2706473214286 12.5627790178571  C 20.3915550595238 12.5767299107143  20.4892113095238 12.6348586309524  20.5636160714286 12.7371651785714  L 21.1077008928571 13.4486607142857  C 21.1821056547619 13.5509672619048  21.2123325892857 13.6602492559524  21.1983816964286 13.7765066964286  C 21.1844308035714 13.8927641369048  21.1309523809524 13.9880952380952  21.0379464285714 14.0625  C 20.6380208333333 14.3787202380952  20.0497581845238 14.8367745535714  19.2731584821429 15.4366629464286  C 18.4965587797619 16.0365513392857  17.8152901785714 16.5620349702381  17.2293526785714 17.0131138392857  C 16.6434151785714 17.4641927083333  16.3318452380952 17.7036830357143  16.2946428571429 17.7315848214286  C 15.9319196428571 18.0292038690476  15.6529017857143 18.2524181547619  15.4575892857143 18.4012276785714  C 15.2622767857143 18.5500372023809  14.9809337797619 18.7406994047619  14.6135602678571 18.9732142857143  C 14.2461867559524 19.2057291666667  13.8904389880952 19.3754650297619  13.5463169642857 19.482421875  C 13.2021949404762 19.5893787202381  12.8580729166667 19.6428571428571  12.5139508928571 19.6428571428571  L 12.5 19.6428571428571  L 12.4860491071429 19.6428571428571  C 12.1419270833333 19.6428571428571  11.7978050595238 19.5893787202381  11.4536830357143 19.482421875  C 11.1095610119048 19.3754650297619  10.7561383928571 19.2057291666667  10.3934151785714 18.9732142857143  C 10.0306919642857 18.7406994047619  9.74702380952381 18.5477120535714  9.54241071428571 18.3942522321429  C 9.33779761904762 18.2407924107143  9.05877976190476 18.0199032738095  8.70535714285714 17.7315848214286  C 8.65885416666667 17.6943824404762  8.35658482142857 17.4595424107143  7.79854910714286 17.0270647321429  C 7.24051339285714 16.5945870535714  6.57319568452381 16.0784040178571  5.79659598214286 15.478515625  C 5.01999627976191 14.8786272321429  4.45033482142857 14.4391741071429  4.08761160714286 14.16015625  C 3.98530505952381 14.0857514880952  3.92717633928571 13.9904203869048  3.91322544642857 13.8741629464286  C 3.89927455357143 13.7579055059524  3.92950148809524 13.6486235119048  4.00390625 13.5463169642857  L 4.52008928571429 12.8208705357143  C 4.59449404761905 12.7185639880952  4.69447544642857 12.6581101190476  4.82003348214286 12.6395089285714  C 4.94559151785714 12.6209077380952  5.05952380952381 12.6534598214286  5.16183035714286 12.7371651785714  C 6.03608630952381 13.4161086309524  7.45907738095238 14.5135788690476  9.43080357142857 16.0295758928571  C 9.47730654761905 16.0667782738095  9.67959449404762 16.2295386904762  10.0376674107143 16.5178571428571  C 10.395740327381 16.8061755952381  10.6770833333333 17.0224144345238  10.8816964285714 17.1665736607143  C 11.0863095238095 17.3107328869048  11.3490513392857 17.4618675595238  11.669921875 17.6199776785714  C 11.9907924107143 17.778087797619  12.2628348214286 17.8571428571429  12.4860491071429 17.8571428571429  L 12.5 17.8571428571429  L 12.5139508928571 17.8571428571429  C 12.7371651785714 17.8571428571429  13.0092075892857 17.778087797619  13.330078125 17.6199776785714  C 13.6509486607143 17.4618675595238  13.9136904761905 17.3107328869048  14.1183035714286 17.1665736607143  C 14.3229166666667 17.0224144345238  14.604259672619 16.8061755952381  14.9623325892857 16.5178571428571  C 15.3204055059524 16.2295386904762  15.522693452381 16.0667782738095  15.5691964285714 16.0295758928571  C 17.96875 14.1880580357143  19.4242931547619 13.0626860119048  19.9358258928571 12.6534598214286  C 20.0381324404762 12.5790550595238  20.1497395833333 12.548828125  20.2706473214286 12.5627790178571  Z M 23.0817522321429 23.0817522321429  C 23.1701078869048 22.993396577381  23.2142857142857 22.8887648809524  23 22.7678571428571  L 23 9.82142857142857  C 22.3772321428571 9.04947916666667  21.6378348214286 8.40308779761905  20.99609375 7.88225446428572  C 20.1497395833333 7.19401041666667  18.3407738095238 5.78031994047619  15.5691964285714 3.64118303571428  C 15.5412946428571 3.62258184523809  15.3413318452381 3.45982142857143  14.9693080357143 3.15290178571428  C 14.5972842261905 2.84598214285714  14.3136160714286 2.62276785714286  14.1183035714286 2.48325892857143  C 13.9229910714286 2.34375  13.6625744047619 2.19261532738095  13.3370535714286 2.02985491071428  C 13.0115327380952 1.86709449404762  12.7371651785714 1.78571428571428  12.5139508928571 1.78571428571428  L 12.5 1.78571428571428  L 12.4860491071429 1.78571428571428  C 12.2628348214286 1.78571428571428  11.9884672619048 1.86709449404762  11.6629464285714 2.02985491071428  C 11.3374255952381 2.19261532738095  11.0770089285714 2.34375  10.8816964285714 2.48325892857143  C 10.6863839285714 2.62276785714286  10.4027157738095 2.84598214285714  10.0306919642857 3.15290178571428  C 9.65866815476191 3.45982142857143  9.45870535714286 3.62258184523809  9.43080357142857 3.64118303571428  C 7.4311755952381 5.18508184523809  5.96400669642857 6.32672991071428  5.029296875 7.06612723214286  C 4.09458705357143 7.80552455357143  3.49237351190476 8.28915550595238  3.22265625 8.51702008928572  C 2.95293898809524 8.74488467261905  2.57161458333333 9.09133184523809  2.07868303571429 9.55636160714286  C 1.94847470238095 9.66796875  1.85081845238095 9.7563244047619  2 9.82142857142857  L 2 22.7678571428571  C 1.78571428571429 22.8887648809524  1.82989211309524 22.993396577381  1.91824776785714 23.0817522321429  C 2.00660342261905 23.1701078869048  2.11123511904762 23.2142857142857  2.23214285714286 23  L 22.7678571428571 23  C 22.8887648809524 23.2142857142857  22.993396577381 23.1701078869048  23.0817522321429 23.0817522321429  Z M 24.4280133928571 8.51004464285714  C 24.8093377976191 8.86346726190476  25 9.30059523809524  25 9.82142857142857  L 25 22.7678571428571  C 25 23.3816964285714  24.7814360119048 23.9071800595238  24.3443080357143 24.3443080357143  C 23.9071800595238 24.7814360119048  23.3816964285714 25  22.7678571428571 25  L 2.23214285714286 25  C 1.61830357142857 25  1.09281994047619 24.7814360119048  0.655691964285714 24.3443080357143  C 0.218563988095238 23.9071800595238  0 23.3816964285714  0 22.7678571428571  L 0 9.82142857142857  C 0 9.30059523809524  0.190662202380952 8.86346726190476  0.571986607142857 8.51004464285714  C 1.71595982142857 7.44977678571428  3.34356398809524 6.09886532738095  5.45479910714286 4.45731026785714  C 7.56603422619048 2.81575520833333  8.64955357142857 1.97172619047619  8.70535714285714 1.92522321428572  C 9.04017857142857 1.64620535714286  9.31454613095238 1.42531622023809  9.52845982142857 1.26255580357143  C 9.74237351190476 1.09979538690476  10.0283668154762 0.904482886904762  10.3864397321429 0.676618303571427  C 10.7445126488095 0.448753720238093  11.0979352678571 0.279017857142858  11.4467075892857 0.167410714285715  C 11.7954799107143 0.0558035714285726  12.1419270833333 0  12.4860491071429 0  L 12.5 0  L 12.5139508928571 0  C 12.8580729166667 0  13.2045200892857 0.0558035714285726  13.5532924107143 0.167410714285715  C 13.9020647321429 0.279017857142858  14.2554873511905 0.448753720238093  14.6135602678571 0.676618303571427  C 14.9716331845238 0.904482886904762  15.2576264880952 1.09979538690476  15.4715401785714 1.26255580357143  C 15.6854538690476 1.42531622023809  15.9598214285714 1.64620535714286  16.2946428571429 1.92522321428572  C 16.694568452381 2.26004464285714  17.4200148809524 2.82738095238095  18.4709821428571 3.62723214285714  C 19.5219494047619 4.42708333333333  20.5729166666667 5.25018601190476  21.6238839285714 6.09654017857143  C 22.6748511904762 6.94289434523809  23.6095610119048 7.74739583333333  24.4280133928571 8.51004464285714  Z " fill-rule="nonzero" fill="#000000" stroke="none" transform="matrix(1 0 0 1 0 -4 )" />
  </g>
</svg>