<?xml version="1.0" encoding="utf-8"?>
<svg version="1.1" xmlns:xlink="http://www.w3.org/1999/xlink" width="140px" height="171px" xmlns="http://www.w3.org/2000/svg">
  <g transform="matrix(1 0 0 1 -354 -1120 )">
    <path d="M 354.5 1259.40909090909  C 354.5 1259.40909090909  354.5 1120.5  354.5 1120.5  C 354.5 1120.5  493.5 1120.5  493.5 1120.5  C 493.5 1120.5  493.5 1259.40909090909  493.5 1259.40909090909  C 493.5 1259.40909090909  401.731819554776 1259.40909090909  401.731819554776 1259.40909090909  C 401.731819554776 1259.40909090909  392.047846889952 1289.37406918339  392.047846889952 1289.37406918339  C 392.047846889952 1289.37406918339  382.363874225128 1259.40909090909  382.363874225128 1259.40909090909  C 382.363874225128 1259.40909090909  354.5 1259.40909090909  354.5 1259.40909090909  Z " fill-rule="nonzero" fill="#ffffff" stroke="none" fill-opacity="0" />
    <path d="M 354 1259.90909090909  C 354 1259.90909090909  354 1120  354 1120  C 354 1120  494 1120  494 1120  C 494 1120  494 1259.90909090909  494 1259.90909090909  C 494 1259.90909090909  402.095693779904 1259.90909090909  402.095693779904 1259.90909090909  C 402.095693779904 1259.90909090909  392.047846889952 1291  392.047846889952 1291  C 392.047846889952 1291  382 1259.90909090909  382 1259.90909090909  C 382 1259.90909090909  354 1259.90909090909  354 1259.90909090909  Z M 355 1258.90909090909  C 355 1258.90909090909  382.727748450257 1258.90909090909  382.727748450257 1258.90909090909  C 382.727748450257 1258.90909090909  392.047846889952 1287.74813836678  392.047846889952 1287.74813836678  C 392.047846889952 1287.74813836678  401.367945329647 1258.90909090909  401.367945329647 1258.90909090909  C 401.367945329647 1258.90909090909  493 1258.90909090909  493 1258.90909090909  C 493 1258.90909090909  493 1121  493 1121  C 493 1121  355 1121  355 1121  C 355 1121  355 1258.90909090909  355 1258.90909090909  Z " fill-rule="nonzero" fill="#797979" stroke="none" />
  </g>
</svg>