<?xml version="1.0" encoding="utf-8"?>
<svg version="1.1" xmlns:xlink="http://www.w3.org/1999/xlink" width="31px" height="31px" xmlns="http://www.w3.org/2000/svg">
  <g transform="matrix(1 0 0 1 -11 -10 )">
    <path d="M 25.4498697916667 17.6998697916667  C 25.7055121527778 17.4442274305556  25.8333333333333 17.1414930555556  25.8333333333333 16.7916666666667  L 25.8333333333333 14.2083333333333  C 25.8333333333333 13.8585069444444  25.7055121527778 13.5557725694444  25.4498697916667 13.3001302083333  C 25.1942274305556 13.0444878472222  24.8914930555556 12.9166666666667  24.5416666666667 12.9166666666667  L 18.0833333333333 12.9166666666667  L 18.0833333333333 6.45833333333333  C 18.0833333333333 6.10850694444444  17.9555121527778 5.80577256944444  17.6998697916667 5.55013020833333  C 17.4442274305556 5.29448784722222  17.1414930555556 5.16666666666667  16.7916666666667 5.16666666666667  L 14.2083333333333 5.16666666666667  C 13.8585069444444 5.16666666666667  13.5557725694444 5.29448784722222  13.3001302083333 5.55013020833333  C 13.0444878472222 5.80577256944444  12.9166666666667 6.10850694444444  12.9166666666667 6.45833333333333  L 12.9166666666667 12.9166666666667  L 6.45833333333333 12.9166666666667  C 6.10850694444445 12.9166666666667  5.80577256944445 13.0444878472222  5.55013020833333 13.3001302083333  C 5.29448784722222 13.5557725694444  5.16666666666667 13.8585069444444  5.16666666666667 14.2083333333333  L 5.16666666666667 16.7916666666667  C 5.16666666666667 17.1414930555556  5.29448784722222 17.4442274305556  5.55013020833333 17.6998697916667  C 5.80577256944445 17.9555121527778  6.10850694444445 18.0833333333333  6.45833333333333 18.0833333333333  L 12.9166666666667 18.0833333333333  L 12.9166666666667 24.5416666666667  C 12.9166666666667 24.8914930555556  13.0444878472222 25.1942274305556  13.3001302083333 25.4498697916667  C 13.5557725694444 25.7055121527778  13.8585069444444 25.8333333333333  14.2083333333333 25.8333333333333  L 16.7916666666667 25.8333333333333  C 17.1414930555556 25.8333333333333  17.4442274305556 25.7055121527778  17.6998697916667 25.4498697916667  C 17.9555121527778 25.1942274305556  18.0833333333333 24.8914930555556  18.0833333333333 24.5416666666667  L 18.0833333333333 18.0833333333333  L 24.5416666666667 18.0833333333333  C 24.8914930555556 18.0833333333333  25.1942274305556 17.9555121527778  25.4498697916667 17.6998697916667  Z M 29.2945963541667 1.70540364583333  C 30.4315321180556 2.84233940972222  31 4.21137152777777  31 5.8125  L 31 25.1875  C 31 26.7886284722222  30.4315321180556 28.1576605902778  29.2945963541667 29.2945963541667  C 28.1576605902778 30.4315321180556  26.7886284722222 31  25.1875 31  L 5.8125 31  C 4.21137152777778 31  2.84233940972222 30.4315321180556  1.70540364583333 29.2945963541667  C 0.568467881944444 28.1576605902778  0 26.7886284722222  0 25.1875  L 0 5.8125  C 0 4.21137152777777  0.568467881944444 2.84233940972222  1.70540364583333 1.70540364583333  C 2.84233940972222 0.568467881944443  4.21137152777778 0  5.8125 0  L 25.1875 0  C 26.7886284722222 0  28.1576605902778 0.568467881944443  29.2945963541667 1.70540364583333  Z " fill-rule="nonzero" fill="#4b7902" stroke="none" transform="matrix(1 0 0 1 11 10 )" />
  </g>
</svg>