<?xml version="1.0" encoding="utf-8"?>
<svg version="1.1" xmlns:xlink="http://www.w3.org/1999/xlink" width="96px" height="23px" xmlns="http://www.w3.org/2000/svg">
  <defs>
    <mask fill="white" id="clip1">
      <path d="M 0 23  L 0 0  L 59 0  L 96 0  L 96 23  L 69.4000000000015 23  L 0 23  Z " fill-rule="evenodd" />
    </mask>
  </defs>
  <g transform="matrix(1 0 0 1 -904 -70 )">
    <path d="M 0 23  L 0 0  L 59 0  L 96 0  L 96 23  L 69.4000000000015 23  L 0 23  Z " fill-rule="nonzero" fill="#f2f2f2" stroke="none" transform="matrix(1 0 0 1 904 70 )" />
    <path d="M 0 23  L 0 0  L 59 0  L 96 0  L 96 23  L 69.4000000000015 23  L 0 23  Z " stroke-width="2" stroke="#797979" fill="none" transform="matrix(1 0 0 1 904 70 )" mask="url(#clip1)" />
  </g>
</svg>