<?xml version="1.0" encoding="utf-8"?>
<svg version="1.1" xmlns:xlink="http://www.w3.org/1999/xlink" width="61px" height="47px" xmlns="http://www.w3.org/2000/svg">
  <g transform="matrix(1 0 0 1 -25 0 )">
    <path d="M 31.7708333333333 27.2024739583333  L 46.9678819444444 21.6640625  L 47.4444444444444 31.3333333333333  C 47.5150462962963 32.7408854166667  46.7913773148148 34.0464409722222  45.2734375 35.25  C 43.7554976851852 36.4535590277778  41.681568287037 37.4072265625  39.0516493055556 38.1110026041667  C 36.4217303240741 38.8147786458333  33.5711805555556 39.1666666666667  30.5 39.1666666666667  C 27.4288194444444 39.1666666666667  24.5782696759259 38.8147786458333  21.9483506944444 38.1110026041667  C 19.318431712963 37.4072265625  17.2445023148148 36.4535590277778  15.7265625 35.25  C 14.2086226851852 34.0464409722222  13.4849537037037 32.7408854166667  13.5555555555556 31.3333333333333  L 14.0321180555556 21.6640625  L 29.2291666666667 27.2024739583333  C 29.6174768518519 27.3452690972222  30.041087962963 27.4166666666667  30.5 27.4166666666667  C 30.958912037037 27.4166666666667  31.3825231481482 27.3452690972222  31.7708333333333 27.2024739583333  Z M 60.4175347222222 10.8014322916667  C 60.8058449074074 10.9646267361111  61 11.2808159722222  61 11.75  C 61 12.2191840277778  60.8058449074074 12.5353732638889  60.4175347222222 12.6985677083333  L 30.7647569444444 23.4694010416667  C 30.6941550925926 23.4898003472222  30.6059027777778 23.5  30.5 23.5  C 30.3940972222222 23.5  30.3058449074074 23.4898003472222  30.2352430555556 23.4694010416667  L 12.9730902777778 17.166015625  C 12.2141203703704 17.8595920138889  11.5875289351852 18.9968532986111  11.0933159722222 20.5777994791667  C 10.5991030092593 22.1587456597222  10.2990451388889 23.9793836805556  10.1931423611111 26.0397135416667  C 11.3051215277778 26.7740885416667  11.8611111111111 27.8858506944444  11.8611111111111 29.375  C 11.8611111111111 30.7825520833333  11.3492476851852 31.8739149305556  10.3255208333333 32.6490885416667  L 11.8611111111111 45.8984375  C 11.896412037037 46.1840277777778  11.8258101851852 46.4390190972222  11.6493055555556 46.6634114583333  C 11.4904513888889 46.8878038194444  11.2786458333333 47  11.0138888888889 47  L 5.93055555555556 47  C 5.66579861111111 47  5.45399305555556 46.8878038194444  5.29513888888889 46.6634114583333  C 5.11863425925926 46.4390190972222  5.04803240740741 46.1840277777778  5.08333333333333 45.8984375  L 6.61892361111111 32.6490885416667  C 5.59519675925926 31.8739149305556  5.08333333333333 30.7825520833333  5.08333333333333 29.375  C 5.08333333333333 27.8858506944444  5.65697337962963 26.7536892361111  6.80425347222222 25.978515625  C 6.99840856481482 21.755859375  7.86328125 18.3899739583333  9.39887152777778 15.880859375  L 0.582465277777778 12.6985677083333  C 0.194155092592593 12.5353732638889  0 12.2191840277778  0 11.75  C 0 11.2808159722222  0.194155092592593 10.9646267361111  0.582465277777778 10.8014322916667  L 30.2352430555556 0.0305989583333316  C 30.3058449074074 0.0101996527777755  30.3940972222222 0  30.5 0  C 30.6059027777778 0  30.6941550925926 0.0101996527777755  30.7647569444444 0.0305989583333316  L 60.4175347222222 10.8014322916667  Z " fill-rule="nonzero" fill="#000000" stroke="none" transform="matrix(1 0 0 1 25 0 )" />
  </g>
</svg>